/* XPM */
static char *result[] = {
/* columns rows colors chars-per-pixel */
"64 64 173 2 ",
"   c #00FDFD",
".  c #00FFF3",
"X  c #00FFE6",
"o  c #00FFD9",
"O  c #00FFCD",
"+  c #00FFC0",
"@  c #00FFB4",
"#  c #00FFA7",
"$  c #00FF9B",
"%  c #00FF8E",
"&  c #00FF82",
"*  c #00FF75",
"=  c #00FF69",
"-  c #00FF5D",
";  c #00FF51",
":  c #00FF45",
">  c #00FF38",
",  c #00FF2C",
"<  c #00FF1F",
"1  c #00FF13",
"2  c #00FF06",
"3  c #06FF00",
"4  c #13FF00",
"5  c #20FF00",
"6  c #2CFF00",
"7  c #39FF00",
"8  c #45FF00",
"9  c #52FF00",
"0  c #5EFF00",
"q  c #6BFF00",
"w  c #77FF00",
"e  c #84FF00",
"r  c #90FF00",
"t  c #9DFF00",
"y  c #A9FF00",
"u  c #B6FF00",
"i  c #C2FF00",
"p  c #CFFF00",
"a  c #DBFF00",
"s  c #E8FF00",
"d  c #F4FF00",
"f  c #FEFD00",
"g  c #FFF200",
"h  c #FFE500",
"j  c #FFD900",
"k  c #FFCC00",
"l  c #FFC000",
"z  c #FFB300",
"x  c #FFA700",
"c  c #FF9A00",
"v  c #FF8E00",
"b  c #FF8100",
"n  c #FF7500",
"m  c #FF6800",
"M  c #FF5C00",
"N  c #FF4F00",
"B  c #FF4300",
"V  c #FF3600",
"C  c #FF2A00",
"Z  c #FF1E00",
"A  c #FF1100",
"S  c #FF0500",
"D  c red",
"F  c #00F3FF",
"G  c #00FF2B",
"H  c #00FF12",
"J  c #FF1D00",
"K  c #FF0400",
"L  c #00E6FF",
"P  c #00FFDA",
"I  c #00FFA8",
"U  c #00FF8F",
"Y  c #00FF76",
"T  c #1FFF00",
"R  c #6AFF00",
"E  c #CEFF00",
"W  c #FFE600",
"Q  c #FFB400",
"!  c #FF9B00",
"~  c #FF8200",
"^  c #FF5000",
"/  c #00D9FF",
"(  c #00CDFF",
")  c #00FFC1",
"_  c #51FF00",
"`  c #B5FF00",
"'  c #FFCD00",
"]  c #FF6900",
"[  c #00C0FF",
"{  c #00DAFF",
"}  c #38FF00",
"|  c #9CFF00",
" . c #00B4FF",
".. c #83FF00",
"X. c #00A7FF",
"o. c #00C1FF",
"O. c #009BFF",
"+. c #008EFF",
"@. c #00A8FF",
"#. c #0082FF",
"$. c #0075FF",
"%. c #008FFF",
"&. c #0069FF",
"*. c #005DFF",
"=. c #0076FF",
"-. c #0051FF",
";. c #0045FF",
":. c #0038FF",
">. c #002CFF",
",. c #001FFF",
"<. c #002BFF",
"1. c #0013FF",
"2. c #0006FF",
"3. c #0012FF",
"4. c #0600FF",
"5. c #1300FF",
"6. c #2000FF",
"7. c #2C00FF",
"8. c #3900FF",
"9. c #1F00FF",
"0. c #4500FF",
"q. c #5200FF",
"w. c #5E00FF",
"e. c #6B00FF",
"r. c #7700FF",
"t. c #3800FF",
"y. c #8400FF",
"u. c #9000FF",
"i. c #5100FF",
"p. c #9D00FF",
"a. c #6A00FF",
"s. c #A900FF",
"d. c #B600FF",
"f. c #C200FF",
"g. c #CF00FF",
"h. c #8300FF",
"j. c #DB00FF",
"k. c #B500FF",
"l. c #9C00FF",
"z. c #E800FF",
"x. c #F400FF",
"c. c #FE00FD",
"v. c #FF00F2",
"b. c #FF00E5",
"n. c #FF00D9",
"m. c #CE00FF",
"M. c #FF00CC",
"N. c #FF00E6",
"B. c #FF00C0",
"V. c #FF00B3",
"C. c #FF00CD",
"Z. c #FF00A7",
"A. c #FF009A",
"S. c #FF00B4",
"D. c #FF008E",
"F. c #FF0081",
"G. c #FF009B",
"H. c #FF0075",
"J. c #FF0068",
"K. c #FF0082",
"L. c #FF005C",
"P. c #FF004F",
"I. c #FF0069",
"U. c #FF0043",
"Y. c #FF0037",
"T. c #FF0050",
"R. c #FF002A",
"E. c #FF0036",
"W. c #FF001E",
"Q. c #FF0011",
"!. c #FF001D",
"~. c #FF0005",
"^. c #FF0004",
/* pixels */
"  . X o O + @ # $ % & * = - ; : > , < 1 2 3 4 5 6 7 8 9 0 q w e r t y u i p a s d f g h j k l z x c v b n m M N B V C Z A S D D ",
"F   . X o O + @ # $ % & * = - ; : > G < H 2 3 4 5 6 7 8 9 0 q w e r t y u i p a s d f g h j k l z x c v b n m M N B V C J A K D ",
"L F   . X P O + @ I $ U & Y = - ; : > G < H 2 3 4 T 6 7 8 9 0 R w e r t y u i E a s d f g W j k l Q x ! v ~ n m M ^ B V C Z A S ",
"/ L F   . X P O + @ I $ U & Y = - ; : > G < H 2 3 4 T 6 7 8 9 0 R w e r t y u i E a s d f g W j k l Q x ! v ~ n m M ^ B V C J A ",
"( / L F   . X o O ) @ I $ U & * = - ; : > G < H 2 3 4 T 6 7 8 _ 0 R w e r t y ` i p a s d f g h j ' l Q x ! v b n ] M ^ B V C Z ",
"[ ( { L F   . X o O ) @ I $ % & * = - ; : > G < H 2 3 4 T 6 } 8 _ 0 R w e r | y ` i p a s d f g h j ' l Q x c v b n ] M ^ B V C ",
" .[ ( / L F   . X o O + @ # $ % & Y = - ; : > G < 1 2 3 4 T 6 } 8 _ 0 R w ..r | y ` i E a s d f g h j k l z x c v ~ n m M N B V ",
"X. .o.( { L F   . X P O ) @ # $ % & Y = - ; : > , < 1 2 3 4 T 6 } 8 _ 0 q w ..r | y u i p a s d f g W j ' l z x c v ~ n ] M N B ",
"O.X. .o.( / L F   . X P O + @ # $ % & Y = - ; : > G < H 2 3 4 T 6 } 8 9 0 R w ..r | y u i E a s d f g W j k l z x c v ~ n m M N ",
"+.O.@. .o.( { L F   . X P O ) @ # $ U & Y = - ; : > , < H 2 3 4 T 6 7 8 9 0 q w ..r t y u i p a s d f g W j ' l z x ! v ~ n m M ",
"#.+.O.@. .o.( / L F   . X P O + @ I $ U & Y = - ; : > G < H 2 3 4 T 6 7 8 9 0 R w e r t y u i E a s d f g W j k l Q x ! v ~ n m ",
"$.#.%.O.@. .o.( / L F   . X P O + @ I $ U & Y = - ; : > G < H 2 3 4 T 6 7 8 9 0 R w e r t y u i E a s d f g W j k l Q x ! v b n ",
"&.$.#.%.O.@. .[ ( { L F   . X o O ) @ I $ U & * = - ; : > G < H 2 3 4 T 6 7 8 _ 0 R w e r t y ` i p a s d f g h j ' l Q x ! v b ",
"*.&.=.#.%.O.X. .[ ( { L F   . X o O ) @ I $ % & * = - ; : > G < H 2 3 4 T 6 } 8 _ 0 R w e r | y ` i p a s d f g h j ' l Q x c v ",
"-.*.&.$.#.+.O.X. .[ ( / L F   . X o O + @ # $ % & Y = - ; : > G < 1 2 3 4 T 6 } 8 _ 0 R w ..r | y ` i E a s d f g h j k l z x c ",
";.-.*.&.=.#.+.O.X. .o.( { L F   . X P O ) @ # $ % & Y = - ; : > , < 1 2 3 4 T 6 } 8 _ 0 q w ..r | y u i p a s d f g W j ' l z x ",
":.;.-.*.&.$.#.+.O.X. .o.( / L F   . X P O + @ # $ % & Y = - ; : > G < H 2 3 4 T 6 } 8 9 0 R w ..r | y u i E a s d f g W j k l z ",
">.:.;.-.*.&.=.#.+.O.@. .o.( { L F   . X P O ) @ # $ U & Y = - ; : > , < H 2 3 4 T 6 7 8 9 0 q w ..r t y u i p a s d f g W j k l ",
",.<.:.;.-.*.&.$.#.%.O.@. .o.( / L F   . X P O + @ I $ U & Y = - ; : > G < H 2 3 4 T 6 7 8 9 0 R w e r t y u i E a s d f g W j k ",
"1.,.<.:.;.-.*.&.$.#.%.O.@. .o.( / L F   . X P O + @ I $ U & Y = - ; : > G < H 2 3 4 T 6 7 8 9 0 R w e r t y u i E a s d f g h j ",
"2.3.,.<.:.;.-.*.&.=.#.%.O.@. .[ ( { L F   . X o O ) @ I $ U & * = - ; : > G < H 2 3 4 T 6 7 8 _ 0 R w e r t y ` i p a s d f g h ",
"4.2.3.,.<.:.;.-.*.&.=.#.%.O.X. .[ ( { L F   . X o O ) @ I $ % & * = - ; : > G < H 2 3 4 T 6 } 8 _ 0 R w e r | y ` i p a s d f g ",
"5.4.2.3.,.<.:.;.-.*.&.$.#.+.O.X. .[ ( / L F   . X o O + @ # $ % & Y = - ; : > G < 1 2 3 4 T 6 } 8 _ 0 R w ..r | y ` i E a s d f ",
"6.5.4.2.3.,.<.:.;.-.*.&.=.#.+.O.X. .o.( { L F   . X P O ) @ # $ % & Y = - ; : > , < 1 2 3 4 T 6 } 8 _ 0 q w ..r | y u i p a s d ",
"7.6.5.4.2.3.,.>.:.;.-.*.&.$.#.+.O.X. .o.( / L F   . X P O + @ # $ % & Y = - ; : > G < H 2 3 4 T 6 } 8 9 0 R w ..r | y u i E a s ",
"8.7.9.5.4.2.1.,.<.:.;.-.*.&.=.#.+.O.@. .o.( { L F   . X P O ) @ # $ U & Y = - ; : > , < H 2 3 4 T 6 7 8 9 0 q w ..r t y u i p a ",
"0.8.7.9.5.4.2.3.,.>.:.;.-.*.&.$.#.%.O.@. .o.( / L F   . X P O + @ I $ U & Y = - ; : > G < H 2 3 4 T 6 7 8 9 0 R w e r t y u i p ",
"q.0.8.7.9.5.4.2.3.,.<.:.;.-.*.&.$.#.%.O.@. .o.( / L F   . X P O + @ I $ U & Y = - ; : > G < H 2 3 4 T 6 7 8 9 0 R w e r t y u i ",
"w.q.0.8.7.9.5.4.2.3.,.<.:.;.-.*.&.=.#.%.O.@. .[ ( { L F   . X o O ) @ I $ U & * = - ; : > G < H 2 3 4 T 6 7 8 _ 0 R w e r t y u ",
"e.w.q.0.8.7.9.5.4.2.3.,.<.:.;.-.*.&.=.#.%.O.X. .[ ( { L F   . X o O ) @ I $ % & * = - ; : > G < H 2 3 4 T 6 } 8 _ 0 R w e r t y ",
"r.e.w.q.0.t.7.9.5.4.2.3.,.<.:.;.-.*.&.$.#.+.O.X. .[ ( / L F   . X o O + @ # $ % & Y = - ; : > G < 1 2 3 4 T 6 } 8 _ 0 R w ..r t ",
"y.r.e.w.q.0.t.7.9.5.4.2.3.,.<.:.;.-.*.&.=.#.+.O.X. .o.( { L F   . X P O ) @ # $ % & Y = - ; : > , < 1 2 3 4 T 6 } 8 _ 0 q w e r ",
"u.y.r.e.w.i.0.t.7.9.5.4.2.3.,.>.:.;.-.*.&.$.#.+.O.X. .o.( / L F   . X P O + @ # $ % & Y = - ; : > G < H 2 3 4 T 6 } 8 9 0 R w e ",
"p.u.y.r.a.w.i.0.t.7.9.5.4.2.1.,.<.:.;.-.*.&.=.#.+.O.@. .o.( { L F   . X P O ) @ # $ U & Y = - ; : > , < H 2 3 4 T 6 7 8 9 0 q w ",
"s.p.u.y.r.a.w.i.0.8.7.9.5.4.2.3.,.>.:.;.-.*.&.$.#.%.O.@. .o.( / L F   . X P O + @ I $ U & Y = - ; : > G < H 2 3 4 T 6 7 8 9 0 q ",
"d.s.p.u.y.r.a.w.i.0.8.7.9.5.4.2.3.,.<.:.;.-.*.&.$.#.%.O.@. .o.( / L F   . X P O + @ I $ U & Y = - ; : > G < H 2 3 4 T 6 7 8 9 0 ",
"f.d.s.p.u.y.r.a.w.q.0.8.7.9.5.4.2.3.,.<.:.;.-.*.&.=.#.%.O.@. .[ ( { L F   . X o O ) @ I $ U & * = - ; : > G < H 2 3 4 T 6 7 8 9 ",
"g.f.d.s.p.u.h.r.a.w.q.0.8.7.9.5.4.2.3.,.<.:.;.-.*.&.=.#.%.O.X. .[ ( { L F   . X o O ) @ I $ % & * = - ; : > G < H 2 3 4 T 6 7 8 ",
"j.g.f.k.s.l.u.h.r.e.w.q.0.t.7.9.5.4.2.3.,.<.:.;.-.*.&.$.#.+.O.X. .[ ( / L F   . X o O + @ # $ % & Y = - ; : > G < 1 2 3 4 T 6 7 ",
"z.j.g.f.d.s.l.u.h.r.e.w.q.0.t.7.9.5.4.2.3.,.<.:.;.-.*.&.=.#.+.O.X. .o.( { L F   . X P O ) @ # $ % & Y = - ; : > , < 1 2 3 4 5 6 ",
"x.z.j.g.f.k.s.l.u.h.r.e.w.i.0.t.7.9.5.4.2.3.,.>.:.;.-.*.&.$.#.+.O.X. .o.( / L F   . X P O + @ # $ % & Y = - ; : > G < H 2 3 4 5 ",
"c.x.z.j.g.f.d.s.l.u.y.r.a.w.i.0.t.7.9.5.4.2.1.,.<.:.;.-.*.&.=.#.+.O.@. .o.( { L F   . X P O ) @ # $ U & Y = - ; : > , < H 2 3 4 ",
"v.c.x.z.j.g.f.k.s.p.u.y.r.a.w.i.0.8.7.9.5.4.2.3.,.>.:.;.-.*.&.$.#.%.O.@. .o.( / L F   . X P O + @ I $ U & Y = - ; : > G < H 2 3 ",
"b.v.c.x.z.j.g.f.k.s.p.u.y.r.a.w.i.0.8.7.9.5.4.2.3.,.<.:.;.-.*.&.$.#.%.O.@. .o.( / L F   . X P O + @ I $ U & Y = - ; : > G < H 2 ",
"n.b.v.c.x.z.j.m.f.d.s.p.u.y.r.a.w.q.0.8.7.9.5.4.2.3.,.<.:.;.-.*.&.=.#.%.O.@. .[ ( { L F   . X o O ) @ I $ U & * = - ; : > G < 1 ",
"M.n.N.v.c.x.z.j.m.f.d.s.p.u.h.r.a.w.q.0.8.7.9.5.4.2.3.,.<.:.;.-.*.&.=.#.%.O.X. .[ ( { L F   . X o O ) @ I $ % & * = - ; : > G < ",
"B.M.n.b.v.c.x.z.j.m.f.k.s.l.u.h.r.e.w.q.0.t.7.9.5.4.2.3.,.<.:.;.-.*.&.$.#.+.O.X. .[ ( / L F   . X o O + @ # $ % & Y = - ; : > , ",
"V.B.C.n.N.v.c.x.z.j.g.f.d.s.l.u.h.r.e.w.q.0.t.7.9.5.4.2.3.,.<.:.;.-.*.&.=.#.+.O.X. .o.( { L F   . X P O ) @ # $ % & Y = - ; : > ",
"Z.V.B.C.n.b.v.c.x.z.j.g.f.k.s.l.u.h.r.e.w.i.0.t.7.9.5.4.2.3.,.>.:.;.-.*.&.$.#.+.O.X. .o.( / L F   . X P O + @ # $ % & Y = - ; : ",
"A.Z.S.B.C.n.N.v.c.x.z.j.g.f.d.s.l.u.y.r.a.w.i.0.t.7.9.5.4.2.1.,.<.:.;.-.*.&.=.#.+.O.@. .o.( { L F   . X P O ) @ # $ U & Y = - ; ",
"D.A.Z.S.B.C.n.b.v.c.x.z.j.g.f.k.s.p.u.y.r.a.w.i.0.8.7.9.5.4.2.3.,.>.:.;.-.*.&.$.#.%.O.@. .o.( / L F   . X P O + @ I $ U & Y = - ",
"F.D.G.Z.S.B.C.n.b.v.c.x.z.j.g.f.k.s.p.u.y.r.a.w.i.0.8.7.9.5.4.2.3.,.<.:.;.-.*.&.$.#.%.O.@. .o.( / L F   . X P O + @ I $ U & * = ",
"H.F.D.G.Z.S.B.M.n.N.v.c.x.z.j.m.f.d.s.p.u.y.r.a.w.q.0.8.7.9.5.4.2.3.,.<.:.;.-.*.&.=.#.%.O.@. .[ ( { L F   . X o O ) @ I $ U & * ",
"J.H.K.D.G.Z.V.B.M.n.N.v.c.x.z.j.m.f.d.s.p.u.h.r.a.w.q.0.8.7.9.5.4.2.3.,.<.:.;.-.*.&.=.#.%.O.X. .[ ( { L F   . X o O ) @ I $ % & ",
"L.J.H.F.D.A.Z.V.B.M.n.b.v.c.x.z.j.m.f.k.s.l.u.h.r.e.w.q.0.t.7.9.5.4.2.3.,.<.:.;.-.*.&.$.#.+.O.X. .[ ( / L F   . X o O + @ # $ % ",
"P.L.I.H.K.D.A.Z.V.B.C.n.N.v.c.x.z.j.g.f.d.s.l.u.h.r.e.w.q.0.t.7.9.5.4.2.3.,.<.:.;.-.*.&.=.#.+.O.X. .o.( { L F   . X P O ) @ # $ ",
"U.P.L.I.H.F.D.A.Z.V.B.C.n.b.v.c.x.z.j.g.f.k.s.l.u.h.r.e.w.i.0.t.7.9.5.4.2.3.,.>.:.;.-.*.&.$.#.+.O.X. .o.( / L F   . X P O + @ # ",
"Y.U.T.L.I.H.K.D.A.Z.S.B.C.n.N.v.c.x.z.j.g.f.d.s.l.u.y.r.a.w.i.0.t.7.9.5.4.2.1.,.<.:.;.-.*.&.=.#.+.O.@. .o.( { L F   . X P O + @ ",
"R.E.U.T.L.I.H.F.D.G.Z.S.B.C.n.b.v.c.x.z.j.g.f.k.s.p.u.y.r.a.w.i.0.8.7.9.5.4.2.3.,.>.:.;.-.*.&.$.#.%.O.@. .o.( / L F   . X P O + ",
"W.R.E.U.T.L.I.H.F.D.G.Z.S.B.C.n.b.v.c.x.z.j.g.f.k.s.p.u.y.r.a.w.i.0.8.7.9.5.4.2.3.,.<.:.;.-.*.&.$.#.%.O.@. .o.( / L F   . X o O ",
"Q.!.R.E.U.T.L.J.H.K.D.G.Z.S.B.M.n.N.v.c.x.z.j.m.f.d.s.p.u.y.r.a.w.q.0.8.7.9.5.4.2.3.,.<.:.;.-.*.&.=.#.%.O.@. .[ ( { L F   . X o ",
"~.Q.W.R.E.U.P.L.J.H.K.D.G.Z.V.B.M.n.N.v.c.x.z.j.m.f.d.s.p.u.h.r.a.w.q.0.8.7.9.5.4.2.3.,.<.:.;.-.*.&.=.#.%.O.X. .[ ( { L F   . X ",
"D ^.Q.!.R.E.U.P.L.J.H.F.D.A.Z.V.B.M.n.b.v.c.x.z.j.g.f.d.s.p.u.y.r.e.w.q.0.8.7.6.5.4.2.3.,.<.:.;.-.*.&.$.#.+.O.X. .[ ( / L F   . ",
"D D ~.Q.W.R.E.U.P.L.J.H.F.D.A.Z.V.B.M.n.b.v.c.x.z.j.g.f.d.s.p.u.y.r.e.w.q.0.8.7.6.5.4.2.1.,.>.:.;.-.*.&.$.#.+.O.X. .[ ( / L F   "
};
