/* XPM */
static char *result[] = {
/* columns rows colors chars-per-pixel */
"32 32 116 2 ",
"   c red",
".  c #FF1100",
"X  c #FF0011",
"o  c #FF2A00",
"O  c #FF002A",
"+  c #FF4200",
"@  c #FF4300",
"#  c #FF5B00",
"$  c #FF5C00",
"%  c #FF7400",
"&  c #FF7500",
"*  c #FF0042",
"=  c #FF0043",
"-  c #FF005B",
";  c #FF005C",
":  c #FF0074",
">  c #FF0075",
",  c #01FF06",
"<  c #01FF07",
"1  c #12FF00",
"2  c #13FF00",
"3  c #14FF00",
"4  c #00FF1F",
"5  c #2BFF00",
"6  c #2CFF00",
"7  c #2DFF00",
"8  c #00FF20",
"9  c #00FF38",
"0  c #44FF00",
"q  c #45FF00",
"w  c #46FF00",
"e  c #5EFF00",
"r  c #5FFF00",
"t  c #77FF00",
"y  c #78FF00",
"u  c #00FF50",
"i  c #00FF51",
"p  c #00FF68",
"a  c #00FF69",
"s  c #00FF6A",
"d  c #FF8E00",
"f  c #FF8F00",
"g  c #FFA700",
"h  c #90FF00",
"j  c #A9FF00",
"k  c #FFC000",
"l  c #FFD900",
"z  c #C1FF00",
"x  c #C2FF00",
"c  c #C3FF00",
"v  c #DCFF00",
"b  c #FFF100",
"n  c #FFF200",
"m  c #F4FE00",
"M  c #F5FE00",
"N  c #0106FF",
"B  c #0107FF",
"V  c #1200FF",
"C  c #1300FF",
"Z  c #1400FF",
"A  c #001FFF",
"S  c #2B00FF",
"D  c #2C00FF",
"F  c #2D00FF",
"G  c #0020FF",
"H  c #0038FF",
"J  c #4400FF",
"K  c #4500FF",
"L  c #4600FF",
"P  c #5E00FF",
"I  c #5F00FF",
"U  c #7700FF",
"Y  c #7800FF",
"T  c #0050FF",
"R  c #0051FF",
"E  c #0068FF",
"W  c #0069FF",
"Q  c #006AFF",
"!  c #FF008E",
"~  c #FF008F",
"^  c #FF00A7",
"/  c #9000FF",
"(  c #A900FF",
")  c #FF00C0",
"_  c #FF00D9",
"`  c #C100FF",
"'  c #C200FF",
"]  c #C300FF",
"[  c #DC00FF",
"{  c #FF00F1",
"}  c #FF00F2",
"|  c #F400FE",
" . c #F500FE",
".. c #00FF82",
"X. c #00FF83",
"o. c #00FF9A",
"O. c #00FF9B",
"+. c #00FF9C",
"@. c #00FFB3",
"#. c #00FFB4",
"$. c #0082FF",
"%. c #0083FF",
"&. c #009AFF",
"*. c #009BFF",
"=. c #009CFF",
"-. c #00B3FF",
";. c #00B4FF",
":. c #00FFCD",
">. c #00FFCE",
",. c #00CDFF",
"<. c #00CEFF",
"1. c #00FFE7",
"2. c #00FFE8",
"3. c #00E7FF",
"4. c #00E8FF",
"5. c #00FBFB",
/* pixels */
"5.1.:.#.O...a i 9 8 < 3 7 w r t h j x v m n l k g f & $ @ o .   ",
"3.5.1.:.@.o...p u 9 4 , 3 7 q r y h j x v M b l k g d % # + o . ",
",.3.5.2.:.@.o...a u 9 4 , 3 7 q e t h j x v M n l k g d & # + o ",
";.,.4.5.2.:.@.O...a u 9 4 , 2 6 q e t h j x v m n l k g d & # @ ",
"*.-.,.4.5.2.:.#.O.X.a i 9 4 , 2 6 0 e t h j x v m n l k g d & $ ",
"$.&.-.,.4.5.2.:.#.+.X.a u 9 4 < 2 5 0 e t h j x v m n l k g d & ",
"W $.&.-.,.4.5.2.>.#.+.X.s i 9 8 < 1 5 0 e t h j z v m n l k g f ",
"R E $.*.;.,.4.5.2.>.#.O...a i 9 4 < 2 6 q e y h j z v m n l k g ",
"H R W $.*.;.<.4.5.2.:.#.O...a i 9 8 < 2 6 q r t h j x v m n l k ",
"G H T W %.=.;.<.4.5.2.:.@.o...a u 9 4 , 2 7 q r y h j x v M b l ",
"B A H T W %.=.;.,.4.5.2.:.@.o...a u 9 4 , 3 7 q e t h j x v M n ",
"Z N A H R W %.*.;.,.4.5.2.:.@.O...a u 9 4 , 2 6 q e t h j x v m ",
"F Z N A H T Q $.*.-.,.4.5.2.:.#.O.X.a i 9 4 , 2 6 0 e t h j c v ",
"L F Z N A H R W $.&.-.,.4.5.2.:.#.+.X.a u 9 4 < 2 5 0 e t h j x ",
"I K F C N A H R E $.&.-.,.4.5.2.>.#.+.X.s i 9 8 < 1 5 0 e t h j ",
"U I K D C B G H T W $.*.;.,.4.5.2.>.#.O...a i 9 4 < 2 6 q e y h ",
"/ Y P K D C B A H R W $.*.;.<.4.5.2.:.#.O...a i 9 8 < 2 6 q r t ",
"( / U P J S V B G H T W %.=.;.<.4.5.2.:.@.o...a u 9 4 , 2 7 q r ",
"' ( / U P J S C B A H T W %.=.;.,.4.5.2.:.@.o...a u 9 4 , 3 7 w ",
"[ ' ( / U P J D C N A H R W %.*.;.,.4.5.2.:.@.O...a u 9 4 , 3 7 ",
"| [ ' ( / U P K D C N A H T Q $.*.-.,.4.5.2.:.#.O.X.a i 9 4 , 3 ",
"}  .[ ' ( / U P K F Z N A H R W $.&.-.,.4.5.2.:.#.+.X.a u 9 4 < ",
"_ {  .[ ' ( / Y I K F C N A H R E $.&.-.,.4.5.2.>.#.+.X.s i 9 8 ",
") _ } | [ ' ( / U I K D C B G H T W $.*.;.,.4.5.2.>.#.O...a i 9 ",
"^ ) _ } | [ ` ( / Y P K D C B A H R W $.*.;.<.4.5.2.:.#.O...p i ",
"~ ^ ) _ } | [ ` ( / U P J S V B G H T W %.=.;.<.4.5.2.:.@.o...a ",
"> ! ^ ) _ } | [ ' ( / U P J S C B A H T W %.=.;.,.4.5.2.:.@.o...",
"; : ! ^ ) _ } | [ ' ( / U P J D C N A H R W %.*.;.,.4.5.2.:.@.O.",
"= - > ! ^ ) _ } | [ ' ( / U P K D C N A H T Q $.*.-.,.4.5.2.:.#.",
"O * - > ! ^ ) _ }  .[ ' ( / U P K F Z N A H R W $.&.-.,.4.5.2.:.",
"X O * - > ! ^ ) _ {  .[ ] ( / Y I K F Z N A H R E $.&.-.,.4.5.1.",
"  X O = ; > ~ ^ ) _ } | [ ' ( / U I L F Z B G H R W $.*.;.,.3.5."
};
