/* XPM */
static char *result[] = {
/* columns rows colors chars-per-pixel */
"48 48 106 2 ",
"   c red",
".  c #FF0200",
"X  c #FF0002",
"o  c #FF1100",
"O  c #FF0011",
"+  c #FF2200",
"@  c #FF3200",
"#  c #FF0022",
"$  c #FF0032",
"%  c #FF4300",
"&  c #FF5400",
"*  c #FF6400",
"=  c #FF7500",
"-  c #FF0043",
";  c #FF0054",
":  c #FF0064",
">  c #FF0075",
",  c #00FF06",
"<  c #0AFF00",
"1  c #0BFF00",
"2  c #1BFF00",
"3  c #1CFF00",
"4  c #00FF17",
"5  c #2CFF00",
"6  c #3DFF00",
"7  c #00FF27",
"8  c #00FF38",
"9  c #4DFF00",
"0  c #4EFF00",
"q  c #5EFF00",
"w  c #6FFF00",
"e  c chartreuse",
"r  c #00FF49",
"t  c #00FF59",
"y  c #00FF69",
"u  c #00FF7A",
"i  c #FF8600",
"p  c #FF9600",
"a  c #FFA700",
"s  c #FFB800",
"d  c #80FF00",
"f  c #90FF00",
"g  c #A1FF00",
"h  c #B1FF00",
"j  c #B2FF00",
"k  c #FFC800",
"l  c #FFD900",
"z  c #C2FF00",
"x  c #D3FF00",
"c  c #FFEA00",
"v  c #E3FF00",
"b  c #E4FF00",
"n  c #F4FF00",
"m  c #FFFA00",
"M  c #0006FF",
"N  c #0A00FF",
"B  c #0B00FF",
"V  c #1B00FF",
"C  c #1C00FF",
"Z  c #0017FF",
"A  c #2C00FF",
"S  c #3D00FF",
"D  c #0027FF",
"F  c #0038FF",
"G  c #4D00FF",
"H  c #4E00FF",
"J  c #5E00FF",
"K  c #6F00FF",
"L  c #7F00FF",
"P  c #0049FF",
"I  c #0059FF",
"U  c #0069FF",
"Y  c #007AFF",
"T  c #FF0086",
"R  c #FF0096",
"E  c #FF00A7",
"W  c #FF00B8",
"Q  c #8000FF",
"!  c #9000FF",
"~  c #A100FF",
"^  c #B100FF",
"/  c #B200FF",
"(  c #FF00C8",
")  c #FF00D9",
"_  c #C200FF",
"`  c #D300FF",
"'  c #FF00EA",
"]  c #E300FF",
"[  c #E400FF",
"{  c #F400FF",
"}  c #FF00FA",
"|  c #00FF8A",
" . c #00FF9B",
".. c #00FFAC",
"X. c #00FFBC",
"o. c #008AFF",
"O. c #009BFF",
"+. c #00ACFF",
"@. c #00BCFF",
"#. c #00FFCD",
"$. c #00FFDE",
"%. c #00CDFF",
"&. c #00DEFF",
"*. c #00FFEF",
"=. c #00EFFF",
"-. c #00FDFD",
/* pixels */
"-.*.$.#.X... .| u y t r 8 7 4 , 1 3 5 6 0 q w d f g h z x b n m c l k s a p i = * & % @ + o .   ",
"=.-.*.$.#.X... .| u y t r 8 7 4 , < 2 5 6 9 q w e f g h z x v n m c l k s a p i = * & % @ + o . ",
"&.=.-.*.$.#.X... .| u y t r 8 7 4 , < 2 5 6 9 q w e f g h z x v n m c l k s a p i = * & % @ + o ",
"%.&.=.-.*.$.#.X... .| u y t r 8 7 4 , < 2 5 6 9 q w e f g h z x v n m c l k s a p i = * & % @ + ",
"@.%.&.=.-.*.$.#.X... .| u y t r 8 7 4 , < 2 5 6 9 q w e f g h z x v n m c l k s a p i = * & % @ ",
"+.@.%.&.=.-.*.$.#.X... .| u y t r 8 7 4 , < 2 5 6 9 q w e f g h z x v n m c l k s a p i = * & % ",
"O.+.@.%.&.=.-.*.$.#.X... .| u y t r 8 7 4 , < 2 5 6 9 q w e f g h z x v n m c l k s a p i = * & ",
"o.O.+.@.%.&.=.-.*.$.#.X... .| u y t r 8 7 4 , < 2 5 6 9 q w e f g h z x v n m c l k s a p i = * ",
"Y o.O.+.@.%.&.=.-.*.$.#.X... .| u y t r 8 7 4 , < 2 5 6 9 q w e f g h z x v n m c l k s a p i = ",
"U Y o.O.+.@.%.&.=.-.*.$.#.X... .| u y t r 8 7 4 , < 2 5 6 9 q w e f g h z x v n m c l k s a p i ",
"I U Y o.O.+.@.%.&.=.-.*.$.#.X... .| u y t r 8 7 4 , < 2 5 6 9 q w e f g h z x v n m c l k s a p ",
"P I U Y o.O.+.@.%.&.=.-.*.$.#.X... .| u y t r 8 7 4 , < 2 5 6 9 q w e f g h z x v n m c l k s a ",
"F P I U Y o.O.+.@.%.&.=.-.*.$.#.X... .| u y t r 8 7 4 , < 2 5 6 9 q w e f g h z x v n m c l k s ",
"D F P I U Y o.O.+.@.%.&.=.-.*.$.#.X... .| u y t r 8 7 4 , < 2 5 6 9 q w e f g h z x v n m c l k ",
"Z D F P I U Y o.O.+.@.%.&.=.-.*.$.#.X... .| u y t r 8 7 4 , < 2 5 6 9 q w e f g h z x v n m c l ",
"M Z D F P I U Y o.O.+.@.%.&.=.-.*.$.#.X... .| u y t r 8 7 4 , < 2 5 6 9 q w e f g h z x v n m c ",
"B M Z D F P I U Y o.O.+.@.%.&.=.-.*.$.#.X... .| u y t r 8 7 4 , < 2 5 6 9 q w e f g h z x v n m ",
"C N M Z D F P I U Y o.O.+.@.%.&.=.-.*.$.#.X... .| u y t r 8 7 4 , < 2 5 6 9 q w e f g h z x v n ",
"A V N M Z D F P I U Y o.O.+.@.%.&.=.-.*.$.#.X... .| u y t r 8 7 4 , < 2 5 6 9 q w e f g h z x b ",
"S A V N M Z D F P I U Y o.O.+.@.%.&.=.-.*.$.#.X... .| u y t r 8 7 4 , < 2 5 6 9 q w e f g h z x ",
"H S A V N M Z D F P I U Y o.O.+.@.%.&.=.-.*.$.#.X... .| u y t r 8 7 4 , < 2 5 6 9 q w e f g h z ",
"J G S A V N M Z D F P I U Y o.O.+.@.%.&.=.-.*.$.#.X... .| u y t r 8 7 4 , < 2 5 6 9 q w e f g j ",
"K J G S A V N M Z D F P I U Y o.O.+.@.%.&.=.-.*.$.#.X... .| u y t r 8 7 4 , < 2 5 6 9 q w e f g ",
"Q K J G S A V N M Z D F P I U Y o.O.+.@.%.&.=.-.*.$.#.X... .| u y t r 8 7 4 , < 2 5 6 9 q w e f ",
"! L K J G S A V N M Z D F P I U Y o.O.+.@.%.&.=.-.*.$.#.X... .| u y t r 8 7 4 , < 2 5 6 9 q w d ",
"~ ! L K J G S A V N M Z D F P I U Y o.O.+.@.%.&.=.-.*.$.#.X... .| u y t r 8 7 4 , < 2 5 6 9 q w ",
"^ ~ ! L K J G S A V N M Z D F P I U Y o.O.+.@.%.&.=.-.*.$.#.X... .| u y t r 8 7 4 , < 2 5 6 9 q ",
"_ ^ ~ ! L K J G S A V N M Z D F P I U Y o.O.+.@.%.&.=.-.*.$.#.X... .| u y t r 8 7 4 , < 2 5 6 0 ",
"` _ ^ ~ ! L K J G S A V N M Z D F P I U Y o.O.+.@.%.&.=.-.*.$.#.X... .| u y t r 8 7 4 , < 2 5 6 ",
"[ ` _ ^ ~ ! L K J G S A V N M Z D F P I U Y o.O.+.@.%.&.=.-.*.$.#.X... .| u y t r 8 7 4 , < 2 5 ",
"{ ] ` _ ^ ~ ! L K J G S A V N M Z D F P I U Y o.O.+.@.%.&.=.-.*.$.#.X... .| u y t r 8 7 4 , < 3 ",
"} { ] ` _ ^ ~ ! L K J G S A V N M Z D F P I U Y o.O.+.@.%.&.=.-.*.$.#.X... .| u y t r 8 7 4 , 1 ",
"' } { ] ` _ ^ ~ ! L K J G S A V N M Z D F P I U Y o.O.+.@.%.&.=.-.*.$.#.X... .| u y t r 8 7 4 , ",
") ' } { ] ` _ ^ ~ ! L K J G S A V N M Z D F P I U Y o.O.+.@.%.&.=.-.*.$.#.X... .| u y t r 8 7 4 ",
"( ) ' } { ] ` _ ^ ~ ! L K J G S A V N M Z D F P I U Y o.O.+.@.%.&.=.-.*.$.#.X... .| u y t r 8 7 ",
"W ( ) ' } { ] ` _ ^ ~ ! L K J G S A V N M Z D F P I U Y o.O.+.@.%.&.=.-.*.$.#.X... .| u y t r 8 ",
"E W ( ) ' } { ] ` _ ^ ~ ! L K J G S A V N M Z D F P I U Y o.O.+.@.%.&.=.-.*.$.#.X... .| u y t r ",
"R E W ( ) ' } { ] ` _ ^ ~ ! L K J G S A V N M Z D F P I U Y o.O.+.@.%.&.=.-.*.$.#.X... .| u y t ",
"T R E W ( ) ' } { ] ` _ ^ ~ ! L K J G S A V N M Z D F P I U Y o.O.+.@.%.&.=.-.*.$.#.X... .| u y ",
"> T R E W ( ) ' } { ] ` _ ^ ~ ! L K J G S A V N M Z D F P I U Y o.O.+.@.%.&.=.-.*.$.#.X... .| u ",
": > T R E W ( ) ' } { ] ` _ ^ ~ ! L K J G S A V N M Z D F P I U Y o.O.+.@.%.&.=.-.*.$.#.X... .| ",
"; : > T R E W ( ) ' } { ] ` _ ^ ~ ! L K J G S A V N M Z D F P I U Y o.O.+.@.%.&.=.-.*.$.#.X... .",
"- ; : > T R E W ( ) ' } { ] ` _ ^ ~ ! L K J G S A V N M Z D F P I U Y o.O.+.@.%.&.=.-.*.$.#.X...",
"$ - ; : > T R E W ( ) ' } { ] ` _ ^ ~ ! L K J G S A V N M Z D F P I U Y o.O.+.@.%.&.=.-.*.$.#.X.",
"# $ - ; : > T R E W ( ) ' } { ] ` _ ^ ~ ! L K J G S A V N M Z D F P I U Y o.O.+.@.%.&.=.-.*.$.#.",
"O # $ - ; : > T R E W ( ) ' } { ] ` _ ^ ~ ! L K J G S A V N M Z D F P I U Y o.O.+.@.%.&.=.-.*.$.",
"X O # $ - ; : > T R E W ( ) ' } { ] ` _ ^ ~ ! L K J G S A V N M Z D F P I U Y o.O.+.@.%.&.=.-.*.",
"  X O # $ - ; : > T R E W ( ) ' } { [ ` _ / ~ ! Q K J H S A C B M Z D F P I U Y o.O.+.@.%.&.=.-."
};
