/* XPM */
static char *a19c6fa74a634537b7053c264bbc917bzDBylp0b2TrEMM2c[] = {
/* columns rows colors chars-per-pixel */
"16 16 44 1 ",
"  c #FF1200",
". c #FF0012",
"X c #FF4300",
"o c #FF7500",
"O c #FF0043",
"+ c #FF0075",
"@ c #00FF07",
"# c #04FF08",
"$ c #2CFF00",
"% c #2DFF00",
"& c #2FFF00",
"* c #00FF38",
"= c #5EFF00",
"- c #60FF00",
"; c #00FF69",
": c #FFA700",
"> c #90FF00",
", c #91FF00",
"< c #FFDB00",
"1 c #C4FF00",
"2 c #F1FC00",
"3 c #F2FC00",
"4 c #0007FF",
"5 c #0408FF",
"6 c #2C00FF",
"7 c #2D00FF",
"8 c #2F00FF",
"9 c #0038FF",
"0 c #5E00FF",
"q c #6000FF",
"w c #0069FF",
"e c #FF00A7",
"r c #9000FF",
"t c #9100FF",
"y c #FF00DB",
"u c #C400FF",
"i c #F100FC",
"p c #F200FC",
"a c #00FF9B",
"s c #009BFF",
"d c #00FFCF",
"f c #00CFFF",
"g c #00F7F7",
"h c #00F8F8",
/* pixels */
"gda;*#&-,12<:oX ",
"fhda;*@&=,12<:oX",
"sfhda;*@&=,12<:o",
"wsfhda;*@&=,12<:",
"9wsfhda;*@&=,12<",
"59wsfhda;*@&=,12",
"849wsfhda;*@&=,1",
"q849wsfhda;*@&=,",
"t0849wsfhda;*@&-",
"ut0849wsfhda;*@&",
"put0849wsfhda;*#",
"yput0849wsfhda;*",
"eyput0849wsfhda;",
"+eyput0849wsfhda",
"O+eyput0849wsfhd",
".O+eyputq859wsfg"
};
