/* XPM */
static char *_1c1a9ac508b4433c7991998e0b0588b5k1PmjdmcSIYOeHe[] = {
/* columns rows colors chars-per-pixel */
"24 24 67 1 ",
"  c #FF0300",
". c #FF0003",
"X c #FF2200",
"o c #FF0022",
"O c #FF4300",
"+ c #FF6400",
"@ c #FF0043",
"# c #FF0064",
"$ c #0BFF00",
"% c #0DFF00",
"& c #00FF17",
"* c #2CFF00",
"= c #2DFF00",
"- c #00FF38",
"; c #4DFF00",
": c #4EFF00",
"> c #6FFF00",
", c #00FF59",
"< c #00FF79",
"1 c #00FF7A",
"2 c #FF8500",
"3 c #FF8600",
"4 c #FFA700",
"5 c #90FF00",
"6 c #91FF00",
"7 c #B1FF00",
"8 c #B2FF00",
"9 c #FFC800",
"0 c #FFC900",
"q c #D3FF00",
"w c #D4FF00",
"e c #FFEA00",
"r c #FFEB00",
"t c #F3FE00",
"y c #0B00FF",
"u c #0D00FF",
"i c #0017FF",
"p c #2C00FF",
"a c #2D00FF",
"s c #0038FF",
"d c #4D00FF",
"f c #4E00FF",
"g c #6F00FF",
"h c #0059FF",
"j c #0079FF",
"k c #007AFF",
"l c #FF0085",
"z c #FF0086",
"x c #FF00A7",
"c c #9000FF",
"v c #9100FF",
"b c #B100FF",
"n c #B200FF",
"m c #FF00C8",
"M c #FF00C9",
"N c #D300FF",
"B c #D400FF",
"V c #FF00EA",
"C c #FF00EB",
"Z c #F300FE",
"A c #00FF9B",
"S c #00FFBC",
"D c #009BFF",
"F c #00BCFF",
"G c #00FFDF",
"H c #00DFFF",
"J c #00FAFA",
/* pixels */
"JGSA1,-&%=:>68wte942+OX.",
"HJGSA1,-&$=:>68qte942+OX",
"FHJGSA1,-&$=:>68qte942+O",
"DFHJGSA1,-&$=:>68qte942+",
"jDFHJGSA1,-&$=:>68qte942",
"hjDFHJGSA1,-&$=:>68qte94",
"shjDFHJGSA1,-&$=:>68qte9",
"ishjDFHJGSA1,-&$=:>68qte",
"uishjDFHJGSA1,-&$=:>68qt",
"pyishjDFHJGSA1,-&$=:>68w",
"dpyishjDFHJGSA1,-&$=:>68",
"gdpyishjDFHJGSA1,-&$=:>6",
"vgdpyishjDFHJGSA1,-&$=:>",
"nvgdpyishjDFHJGSA1,-&$=:",
"BnvgdpyishjDFHJGSA1,-&$=",
"ZNnvgdpyishjDFHJGSA1,-&%",
"VZNnvgdpyishjDFHJGSA1,-&",
"mVZNnvgdpyishjDFHJGSA1,-",
"xmVZNnvgdpyishjDFHJGSA1,",
"lxmVZNnvgdpyishjDFHJGSA1",
"#lxmVZNnvgdpyishjDFHJGSA",
"@#lxmVZNnvgdpyishjDFHJGS",
"o@#lxmVZNnvgdpyishjDFHJG",
".o@#lxmVZBnvgdpuishjDFHJ"
};
